PathFileType	4	(X/Y/Z)	/Users/itak/Documents/Research/Walk-IL/dataset/trc/00537_00009.trc
DataRate	CameraRate	NumFrames	NumMarkers	Units	OrigDataRate	OrigDataStartFrame	OrigNumFrames
100.000000	100.000000	4	53	mm	100.000000	0	765
Frame#	Time	RPSI			LPSI			L3			STRN			T10			C7			CLAV			RBAK			LBAK			LSHO			LUPA			LAEL			LAOL			LWTS			LWPS			LFRA			LIFD			LHPS			LHTS			RSHO			RUPA			RAEL			RAOL			RWTS			RWPS			RFRA			RIFD			RHTS			RHPS			RBHD			LFHD			RFHD			LBHD			LHIP			RHIP			RASI			LASI			LKNE			LTHI			LANK			LTIP			LTOE			LMT1			LMT5			LHEE			RKNE			RTHI			RANK			RTIP			RTOE			RMT1			RMT5			RHEE			
		X1	Y1	Z1	X2	Y2	Z2	X3	Y3	Z3	X4	Y4	Z4	X5	Y5	Z5	X6	Y6	Z6	X7	Y7	Z7	X8	Y8	Z8	X9	Y9	Z9	X10	Y10	Z10	X11	Y11	Z11	X12	Y12	Z12	X13	Y13	Z13	X14	Y14	Z14	X15	Y15	Z15	X16	Y16	Z16	X17	Y17	Z17	X18	Y18	Z18	X19	Y19	Z19	X20	Y20	Z20	X21	Y21	Z21	X22	Y22	Z22	X23	Y23	Z23	X24	Y24	Z24	X25	Y25	Z25	X26	Y26	Z26	X27	Y27	Z27	X28	Y28	Z28	X29	Y29	Z29	X30	Y30	Z30	X31	Y31	Z31	X32	Y32	Z32	X33	Y33	Z33	X34	Y34	Z34	X35	Y35	Z35	X36	Y36	Z36	X37	Y37	Z37	X38	Y38	Z38	X39	Y39	Z39	X40	Y40	Z40	X41	Y41	Z41	X42	Y42	Z42	X43	Y43	Z43	X44	Y44	Z44	X45	Y45	Z45	X46	Y46	Z46	X47	Y47	Z47	X48	Y48	Z48	X49	Y49	Z49	X50	Y50	Z50	X51	Y51	Z51	X52	Y52	Z52	X53	Y53	Z53	

1	0	-776.2061767578125	1021.846374511719	456.1222534179688	-762.8043823242188	1026.019897460938	323.2031860351562	-766.1026000976562	1108.4814453125	386.536865234375	-539.5145874023438	1297.395629882812	393.58935546875	-780.2657470703125	1234.260131835938	385.3105773925781	-738.5499877929688	1507.717041015625	398.5757141113281	-561.7833862304688	1408.321044921875	393.2427978515625	-809.327392578125	1381.262817382812	483.4238586425781	-767.1018676757812	1454.69775390625	304.7869873046875	-665.8024291992188	1480.754760742188	226.9195861816406	-668.3287963867188	1353.15380859375	147.5406341552734	-636.2835693359375	1131.103637695312	131.7487335205078	-727.3430786132812	1120.58984375	174.2697906494141	-543.6295166015625	889.4180297851562	189.2332000732422	-582.8250122070312	865.2601318359375	114.6515579223633	-610.80615234375	1044.710815429688	128.7093963623047	-542.2725830078125	718.5475463867188	185.0570068359375	-573.732421875	805.7972412109375	124.2459945678711	-525.9034423828125	811.87060546875	172.0793304443359	-682.0864868164062	1468.077270507812	554.7553100585938	-699.81640625	1402.586303710938	622.4879150390625	-692.3124389648438	1113.115966796875	665.757080078125	-747.55126953125	1093.92041015625	641.291015625	-557.9378051757812	893.2936401367188	613.5021362304688	-595.9166870117188	872.0438232421875	682.5176391601562	-678.7023315429688	1056.451782226562	671.3681640625	-544.9475708007812	720.2078857421875	615.7308349609375	-526.7406616210938	802.206298828125	625.9545288085938	-577.3964233398438	797.933837890625	679.4300537109375	-681.0305786132812	1687.267333984375	456.4463195800781	-509.6678161621094	1719.146850585938	342.8963928222656	-546.0701904296875	1719.8359375	483.0778198242188	-631.8352661132812	1686.785400390625	297.9852600097656	-627.919677734375	940.584716796875	204.3372802734375	-666.6035766601562	941.9536743164062	586.2572021484375	-573.76025390625	969.1163330078125	536.010498046875	-552.2640380859375	962.916259765625	259.0122985839844	-628.6539916992188	494.0755004882812	260.5533142089844	-617.7636108398438	659.1331176757812	223.5544128417969	-711.0792846679688	33.90506362915039	260.9383239746094	-694.498046875	252.2854919433594	250.3057098388672	-503.66943359375	39.20166015625	328.4638977050781	-578.1408081054688	41.25029373168945	360.1910705566406	-587.4744873046875	34.50738143920898	252.5188446044922	-783.677490234375	36.34446334838867	313.2192993164062	-657.5089721679688	496.257080078125	535.869873046875	-635.4512939453125	785.1559448242188	584.8037719726562	-739.1102905273438	37.29227447509766	509.0314331054688	-660.1602783203125	354.6724853515625	521.5177612304688	-515.7462768554688	40.05802536010742	484.9248046875	-577.651611328125	38.85612106323242	439.2651062011719	-607.4742431640625	38.23402786254883	539.1342163085938	-789.8619995117188	29.31327819824219	449.6298522949219	
2	0.01	-776.21875	1021.851013183594	456.09716796875	-762.81787109375	1026.0185546875	323.1845703125	-766.1259155273438	1108.475341796875	386.5167846679688	-539.5250854492188	1297.400390625	393.5963134765625	-780.2858276367188	1234.260131835938	385.2999877929688	-738.579345703125	1507.708129882812	398.5953674316406	-561.8414306640625	1408.2734375	393.2863464355469	-809.3501586914062	1381.248168945312	483.4205932617188	-767.1007080078125	1454.686401367188	304.8188781738281	-665.819091796875	1480.791625976562	226.9207458496094	-668.316650390625	1353.167602539062	147.5489349365234	-636.3056030273438	1131.133544921875	131.7248840332031	-727.3219604492188	1120.5986328125	174.2479248046875	-543.6260986328125	889.3873291015625	189.1347961425781	-582.7799682617188	865.2819213867188	114.568603515625	-610.7716674804688	1044.732299804688	128.6635894775391	-542.1634521484375	718.555419921875	184.7077331542969	-573.7007446289062	805.81640625	124.0406875610352	-525.9544677734375	811.8295288085938	171.9237670898438	-682.1021728515625	1468.057373046875	554.7490844726562	-699.8571166992188	1402.562866210938	622.4935302734375	-692.3633422851562	1113.078979492188	665.7041625976562	-747.5376586914062	1093.886352539062	641.236328125	-557.9005737304688	893.3131713867188	613.3771362304688	-595.8924560546875	872.0262451171875	682.4241943359375	-678.683837890625	1056.395263671875	671.3157958984375	-544.822021484375	720.2359008789062	615.5742797851562	-526.58447265625	802.2611083984375	625.7948608398438	-577.2955322265625	797.9595947265625	679.2963256835938	-681.040283203125	1687.281982421875	456.4885864257812	-509.682861328125	1719.123291015625	342.9189147949219	-546.0997314453125	1719.807373046875	483.1437683105469	-631.8241577148438	1686.7958984375	298.0202941894531	-627.6611328125	940.4821166992188	204.4049072265625	-666.6096801757812	941.9527587890625	586.239990234375	-573.7744140625	969.1100463867188	536.0045776367188	-552.2542114257812	962.924072265625	258.9916381835938	-628.6499633789062	494.0762329101562	260.550537109375	-617.7862548828125	659.031005859375	223.5107116699219	-711.0745849609375	33.90968704223633	260.9352722167969	-694.4953002929688	252.2831878662109	250.3012390136719	-503.6660766601562	39.20466232299805	328.4595031738281	-578.1420288085938	41.25142288208008	360.189453125	-587.4707641601562	34.50942611694336	252.5148620605469	-783.6812133789062	36.34601211547852	313.2222900390625	-657.4812622070312	496.2587890625	535.8515014648438	-635.4097900390625	785.1387939453125	584.76806640625	-739.1094970703125	37.29251861572266	509.0328063964844	-660.1547241210938	354.6691589355469	521.5152587890625	-515.7484741210938	40.05837249755859	484.9248962402344	-577.6513671875	38.85639572143555	439.2657470703125	-607.4742431640625	38.23701858520508	539.1336669921875	-789.8734130859375	29.31225776672363	449.6459045410156	
3	0.02	-776.232421875	1021.855285644531	456.0675964355469	-762.8355102539062	1026.016357421875	323.1592407226562	-766.153076171875	1108.469116210938	386.4916381835938	-539.538818359375	1297.405517578125	393.605712890625	-780.3089599609375	1234.25927734375	385.2884826660156	-738.6170654296875	1507.696533203125	398.617919921875	-561.9070434570312	1408.223022460938	393.3351135253906	-809.3784790039062	1381.23046875	483.4158020019531	-767.1113891601562	1454.6748046875	304.8570556640625	-665.8407592773438	1480.83154296875	226.9236602783203	-668.3029174804688	1353.183837890625	147.5586242675781	-636.3195190429688	1131.165771484375	131.6957855224609	-727.2920532226562	1120.608276367188	174.2194061279297	-543.62255859375	889.3504028320312	189.0179443359375	-582.7072143554688	865.3076171875	114.4612579345703	-610.730224609375	1044.757934570312	128.6102752685547	-542.0053100585938	718.5634765625	184.293701171875	-573.6439208984375	805.844482421875	123.7922821044922	-525.9981689453125	811.7862548828125	171.7380218505859	-682.1251220703125	1468.034912109375	554.7459716796875	-699.9102172851562	1402.533325195312	622.5	-692.4285278320312	1113.030883789062	665.638916015625	-747.5311279296875	1093.84521484375	641.1758422851562	-557.8652954101562	893.3336791992188	613.239013671875	-595.8662719726562	872.0052490234375	682.3109741210938	-678.6663208007812	1056.328002929688	671.251220703125	-544.6837158203125	720.2664184570312	615.386474609375	-526.4052124023438	802.3262939453125	625.6066284179688	-577.1869506835938	797.9924926757812	679.1421508789062	-681.0512084960938	1687.297729492188	456.538818359375	-509.6966247558594	1719.096801757812	342.9469909667969	-546.13330078125	1719.7734375	483.223876953125	-631.8098754882812	1686.80615234375	298.0631408691406	-627.3777465820312	940.3778076171875	204.4473266601562	-666.6160278320312	941.9512939453125	586.2173461914062	-573.7913818359375	969.1021728515625	535.9965209960938	-552.2445678710938	962.93212890625	258.9671936035156	-628.6434326171875	494.0754699707031	260.5460815429688	-617.799560546875	658.9521484375	223.4683685302734	-711.0704345703125	33.91215133666992	260.9320678710938	-694.4923706054688	252.2787780761719	250.2958679199219	-503.6631469726562	39.20730972290039	328.45556640625	-578.14208984375	41.25221633911133	360.1885681152344	-587.4664916992188	34.51141357421875	252.5109100341797	-783.684326171875	36.3466796875	313.2239685058594	-657.44677734375	496.2593994140625	535.8305053710938	-635.3745727539062	785.1239624023438	584.7362670898438	-739.108642578125	37.29289627075195	509.0348815917969	-660.1442260742188	354.6641235351562	521.5117797851562	-515.7512817382812	40.05884170532227	484.9253540039062	-577.6508178710938	38.85585403442383	439.2658386230469	-607.468994140625	38.2406120300293	539.1287841796875	-789.8838500976562	29.3111572265625	449.6603393554688	
4	0.03	-776.2455444335938	1021.857971191406	456.0360412597656	-762.8544311523438	1026.013061523438	323.1271667480469	-766.1820678710938	1108.463500976562	386.4621276855469	-539.5556030273438	1297.410034179688	393.6175842285156	-780.3333129882812	1234.2568359375	385.2770690917969	-738.6611328125	1507.682495117188	398.6415710449219	-561.9743041992188	1408.17578125	393.3846130371094	-809.4107055664062	1381.211059570312	483.409423828125	-767.137939453125	1454.664184570312	304.8983459472656	-665.8666381835938	1480.870361328125	226.9287261962891	-668.2879638671875	1353.201293945312	147.5690002441406	-636.3187255859375	1131.19677734375	131.6631317138672	-727.252197265625	1120.617553710938	174.1842041015625	-543.6185913085938	889.3104858398438	188.8923492431641	-582.604248046875	865.336181640625	114.3333969116211	-610.6846923828125	1044.785888671875	128.5538482666016	-541.794189453125	718.5726318359375	183.8451232910156	-573.5587768554688	805.8816528320312	123.5181350708008	-526.0223388671875	811.7473754882812	171.5348358154297	-682.1557006835938	1468.01171875	554.7478637695312	-699.9742431640625	1402.498779296875	622.5067138671875	-692.5054321289062	1112.973510742188	665.5646362304688	-747.53564453125	1093.798950195312	641.1153564453125	-557.8377685546875	893.3529663085938	613.101318359375	-595.8419799804688	871.98193359375	682.18505859375	-678.65380859375	1056.255493164062	671.1776123046875	-544.5473022460938	720.2958984375	615.1788330078125	-526.2199096679688	802.3968505859375	625.4036254882812	-577.0840454101562	798.0311889648438	678.9801635742188	-681.062255859375	1687.312744140625	456.5935974121094	-509.7062683105469	1719.069946289062	342.9791870117188	-546.1676635742188	1719.736572265625	483.3136901855469	-631.7931518554688	1686.814208984375	298.1116638183594	-627.1019287109375	940.2862548828125	204.4444885253906	-666.6217041015625	941.9490356445312	586.189697265625	-573.8095092773438	969.093505859375	535.9860229492188	-552.236572265625	962.939697265625	258.9409484863281	-628.6342163085938	494.0725708007812	260.5398864746094	-617.7969970703125	658.9153442382812	223.4326477050781	-711.0679321289062	33.91176605224609	260.9291076660156	-694.4892578125	252.2722320556641	250.2895355224609	-503.6611022949219	39.2092399597168	328.4525756835938	-578.1409912109375	41.25247573852539	360.1888732910156	-587.46240234375	34.51305389404297	252.5075225830078	-783.6864624023438	36.34601974487305	313.2235107421875	-657.406982421875	496.2584838867188	535.8084716796875	-635.3514404296875	785.1139526367188	584.7125854492188	-739.1078491210938	37.29340362548828	509.0374450683594	-660.128173828125	354.6575622558594	521.5074462890625	-515.75439453125	40.05947494506836	484.9260864257812	-577.64990234375	38.85431289672852	439.2651672363281	-607.4592895507812	38.24440002441406	539.1200561523438	-789.8898315429688	29.30879783630371	449.669189453125	
